<svg width="68" height="71" viewBox="0 0 68 71" fill="none" xmlns="http://www.w3.org/2000/svg">
<g clip-path="url(#clip0_7003_151)">
<path d="M342 94.989C342 94.9951 341.995 95 341.989 95C341.983 95 341.978 94.9953 341.978 94.9894C341.448 81.6509 330.469 71 317 71H58.5178C53.4543 71 49.295 67.1673 47.811 62.3261C41.5415 41.8724 22.5079 27 0 27H-1027C-1049.51 27 -1068.54 41.8724 -1074.81 62.3261C-1076.3 67.1673 -1080.45 71 -1085.52 71H-1553C-1566.47 71 -1577.45 81.6509 -1577.98 94.9894C-1577.98 94.9953 -1577.98 95 -1577.99 95C-1578 95 -1578 94.9951 -1578 94.989V10C-1578 4.47715 -1573.52 0 -1568 0H332C337.523 0 342 4.47715 342 10V94.989Z" fill="#7027E2"/>
</g>
<defs>
<clipPath id="clip0_7003_151">
<rect width="68" height="71" fill="white"/>
</clipPath>
</defs>
</svg>
