<svg width="68" height="71" viewBox="0 0 68 71" fill="none" xmlns="http://www.w3.org/2000/svg">
<g clip-path="url(#clip0_7003_151)">
<path d="M1436 94.989C1436 94.9951 1436 95 1435.99 95C1435.98 95 1435.98 94.9953 1435.98 94.9894C1435.45 81.6509 1424.47 71 1411 71H1152.52C1147.45 71 1143.3 67.1673 1141.81 62.3261C1135.54 41.8724 1116.51 27 1094 27H67C44.4921 27 25.4586 41.8724 19.1889 62.3261C17.705 67.1673 13.5457 71 8.48212 71H-459C-472.469 71 -483.448 81.6509 -483.978 94.9894C-483.978 94.9953 -483.983 95 -483.989 95C-483.995 95 -484 94.9951 -484 94.989V10C-484 4.47715 -479.523 0 -474 0H1426C1431.52 0 1436 4.47715 1436 10V94.989Z" fill="#7027E2"/>
</g>
<defs>
<clipPath id="clip0_7003_151">
<rect width="68" height="71" fill="white"/>
</clipPath>
</defs>
</svg>
