<svg width="27" height="24" viewBox="0 0 27 24" fill="none" xmlns="http://www.w3.org/2000/svg">
<g clip-path="url(#clip0_7003_151)">
<path d="M27 23.989C27 23.9951 26.9951 24 26.989 24C26.9832 24 26.9783 23.9953 26.9781 23.9894C26.4478 10.6509 15.4686 0 2 0H-256.482C-261.546 0 -265.705 -3.83269 -267.189 -8.67389C-273.458 -29.1276 -292.492 -44 -315 -44H-1342C-1364.51 -44 -1383.54 -29.1276 -1389.81 -8.67389C-1391.3 -3.83269 -1395.45 0 -1400.52 0H-1868C-1881.47 3.05176e-05 -1892.45 10.6509 -1892.98 23.9894C-1892.98 23.9953 -1892.98 24 -1892.99 24C-1893 24 -1893 23.9951 -1893 23.989V-61C-1893 -66.5228 -1888.52 -71 -1883 -71H17C22.5228 -71 27 -66.5228 27 -61V23.989Z" fill="#7027E2"/>
</g>
<defs>
<clipPath id="clip0_7003_151">
<rect width="27" height="24" fill="white"/>
</clipPath>
</defs>
</svg>
